<?xml version="1.0" standalone="no"?>
<!DOCTYPE svg PUBLIC "-//W3C//DTD SVG 20010904//EN"
 "http://www.w3.org/TR/2001/REC-SVG-20010904/DTD/svg10.dtd">
<svg version="1.0" xmlns="http://www.w3.org/2000/svg"
 width="700.000000pt" height="700.000000pt" viewBox="0 0 700.000000 700.000000"
 preserveAspectRatio="xMidYMid meet">
<metadata>
Created by potrace 1.14, written by Peter Selinger 2001-2017
</metadata>
<g transform="translate(0.000000,700.000000) scale(0.100000,-0.100000)"
fill="#000000" stroke="none">
<path d="M972 6334 c-81 -18 -140 -51 -198 -108 -62 -63 -99 -135 -111 -216
-5 -30 -8 -1171 -7 -2535 1 -2625 -1 -2516 46 -2610 25 -49 115 -138 166 -164
90 -46 -10 -44 2616 -45 1892 -1 2504 2 2548 11 159 32 285 169 306 331 4 32
7 1171 6 2532 -1 1958 -4 2484 -13 2520 -39 136 -146 243 -281 281 -60 16
-5006 20 -5078 3z"/>
</g>
</svg>
